<?xml version="1.0" encoding="utf-8"?>
<!-- Generator: Adobe Illustrator 23.0.0, SVG Export Plug-In . SVG Version: 6.00 Build 0)  -->
<svg version="1.1" id="Layer_1" xmlns="http://www.w3.org/2000/svg" xmlns:xlink="http://www.w3.org/1999/xlink" x="0px" y="0px"
	 viewBox="0 0 37.5 33.2" style="enable-background:new 0 0 37.5 33.2;" xml:space="preserve">
<style type="text/css">
	.st0{fill:none;stroke:#000000;stroke-width:2.5;stroke-miterlimit:10;}
	.st1{fill:#FFFFFF;stroke:#000000;stroke-width:1.5;stroke-miterlimit:10;}
</style>
<image style="display:none;overflow:visible;enable-background:new    ;" width="800" height="600" xlink:href="../../../../Downloads/dribbble-layout-tedc13boston.png"  transform="matrix(1 0 0 1 -904.4019 -481.2189)">
</image>
<rect x="-904.6" y="45.2" width="800" height="3.5"/>
<rect x="-903.5" y="13.1" class="st0" width="16.4" height="33.3"/>
<rect x="-869" y="26.2" class="st0" width="23" height="20.9"/>
<rect x="-886.9" y="31.2" class="st0" width="18" height="15.2"/>
<polyline class="st0" points="-868.9,30.7 -882.8,30.7 -882.8,5.1 -866,5.1 -866,25.7 "/>
<polyline class="st0" points="-848.1,25.9 -848.1,19.4 -824.5,19.4 -824.5,30.7 "/>
<rect x="-835.9" y="31" class="st0" width="15.2" height="16.2"/>
<rect x="-820.8" y="24.2" class="st0" width="49.1" height="22.6"/>
<rect x="-771.3" y="31.2" class="st0" width="15.3" height="16.1"/>
<polyline class="st0" points="-768,31.5 -768,10.3 -751.1,10.3 -751.1,47.4 "/>
<polyline class="st0" points="-747,46.7 -747,-4.5 -718,-4.5 -718,46.7 "/>
<rect x="-713" y="4.2" class="st0" width="27.2" height="43"/>
<polyline class="st0" points="-681.3,47.6 -681.3,-4.7 -653.7,-4.7 -653.7,20.6 "/>
<rect x="-674.9" y="30.9" class="st0" width="23.1" height="16.3"/>
<polyline class="st0" points="-656.7,30.3 -656.7,21 -639.1,21 -639.1,36 "/>
<line class="st0" x1="-652.9" y1="35.4" x2="-633.9" y2="35.4"/>
<polyline class="st0" points="-634.1,46.6 -634.1,18.5 -617.2,18.5 "/>
<polyline class="st0" points="-617.3,46.7 -617.3,-0.4 -587.4,-0.4 -587.4,46.7 "/>
<polyline class="st0" points="-648.9,20.6 -648.9,-15.1 -622.1,-15.1 -622.1,18.2 "/>
<rect x="-583" y="20.1" class="st0" width="14.2" height="27"/>
<rect x="-563.1" y="18" class="st0" width="17.2" height="29.2"/>
<rect x="-528.8" y="30.5" class="st0" width="19.1" height="16.3"/>
<rect x="-509" y="-61.9" class="st0" width="29.3" height="108.6"/>
<rect x="-479.3" y="26" class="st0" width="18.6" height="21.1"/>
<rect x="-443.3" y="17.6" class="st0" width="17.2" height="29.6"/>
<rect x="-420.7" y="10.5" class="st0" width="45.9" height="36.5"/>
<rect x="-369" y="26.3" class="st0" width="23.1" height="20.2"/>
<rect x="-342.1" y="3.8" class="st0" width="27.4" height="42.1"/>
<rect x="-303.1" y="-6" class="st0" width="23.4" height="52.8"/>
<rect x="-275.7" y="-5.6" class="st0" width="21.8" height="52.3"/>
<rect x="-244.9" y="-45.8" class="st0" width="37" height="92.9"/>
<rect x="-132.1" y="10.5" class="st0" width="26.5" height="36.9"/>
<rect x="-201.1" y="20.1" class="st0" width="57.4" height="27"/>
<rect x="-143.7" y="21.4" class="st0" width="11.4" height="25.8"/>
<polyline class="st0" points="-209.1,9.6 -198.2,9.6 -198.2,19.8 "/>
<line class="st0" x1="-254.4" y1="23" x2="-243.9" y2="23"/>
<rect x="-297.2" y="-10.1" class="st0" width="17.6" height="4.2"/>
<rect x="-292.7" y="-15.1" class="st0" width="13" height="4.1"/>
<rect x="-275.7" y="-15.2" class="st0" width="12.7" height="4.4"/>
<rect x="-275.7" y="-10" class="st0" width="17.5" height="3.9"/>
<rect x="-461" y="30.8" width="17.3" height="2.5"/>
<rect x="-416.7" y="5.9" width="38.3" height="3.8"/>
<rect x="-345.6" y="1.8" width="34.1" height="2.9"/>
<rect x="-280.9" y="-27.7" width="2.5" height="12.8"/>
<rect x="-276.9" y="-27.9" width="2.5" height="12.8"/>
<path class="st0" d="M-292.3-14.9c0-6.4,5.2-11.6,11.6-11.6"/>
<path class="st0" d="M-264-15.1c0-6.4-5.2-11.6-11.6-11.6"/>
<rect x="-492.9" y="-62.1" width="2.5" height="109.1"/>
<rect x="-509.5" y="-52.4" width="29.3" height="1"/>
<rect x="-508.8" y="-46.2" width="29.3" height="1"/>
<rect x="-508.8" y="-40.2" width="29.3" height="1"/>
<rect x="-508.8" y="-34.2" width="29.3" height="1"/>
<rect x="-508.8" y="-28.2" width="29.3" height="1"/>
<rect x="-508.8" y="-22.2" width="29.3" height="1"/>
<rect x="-508.8" y="-16.2" width="29.3" height="1"/>
<rect x="-508.8" y="-4.2" width="29.3" height="1"/>
<rect x="-508.8" y="-10.2" width="29.3" height="1"/>
<rect x="-508.8" y="1.8" width="29.3" height="1"/>
<rect x="-509.8" y="7.8" width="29.3" height="1"/>
<rect x="-509.8" y="13.8" width="29.3" height="1"/>
<rect x="-509.8" y="19.8" width="29.3" height="1"/>
<rect x="-509.8" y="25.8" width="29.3" height="1"/>
<rect x="-509.8" y="31.8" width="29.3" height="1"/>
<rect x="-509.8" y="37.8" width="29.3" height="1"/>
<rect x="-580.8" y="10.1" class="st0" width="9.4" height="9.9"/>
<polygon points="-570.6,9 -581.2,8.9 -575.9,-0.2 "/>
<rect x="-679.4" y="-10.4" width="23.9" height="5"/>
<rect x="-711.4" y="-1.4" width="24" height="5.2"/>
<rect x="-748.4" y="-9.2" width="2.9" height="9.1"/>
<rect x="-719.4" y="-9.2" width="3" height="9.1"/>
<rect x="-899.4" y="16.8" width="2.8" height="5"/>
<rect x="-899.4" y="23.8" width="3" height="4.9"/>
<rect x="-899.4" y="30.8" width="2.9" height="5"/>
<rect x="-899.4" y="37.8" width="3" height="5.1"/>
<rect x="-894.4" y="16.8" width="3" height="5"/>
<rect x="-894.4" y="23.7" width="3" height="5"/>
<rect x="-894.4" y="30.7" width="3" height="5"/>
<rect x="-894.4" y="37.8" width="3" height="5"/>
<rect x="-878.5" y="9.7" width="3" height="5"/>
<rect x="-878.4" y="16.7" width="3" height="5"/>
<rect x="-873.4" y="9.8" width="3" height="5"/>
<rect x="-873.4" y="16.7" width="2.9" height="5"/>
<rect x="-873.4" y="23.8" width="2.9" height="5"/>
<rect x="-881.5" y="34.8" width="3" height="3"/>
<rect x="-876.4" y="34.8" width="3" height="3"/>
<rect x="-876.4" y="39.7" width="2.9" height="3"/>
<rect x="-881.4" y="39.8" width="3" height="3"/>
<rect x="-863.4" y="29.8" width="3" height="3"/>
<rect x="-858.4" y="29.8" width="2.9" height="2.9"/>
<rect x="-853.4" y="29.8" width="3" height="3"/>
<rect x="-863.4" y="34.9" width="3" height="3"/>
<rect x="-863.4" y="39.8" width="3" height="3"/>
<rect x="-858.4" y="39.7" width="3" height="3"/>
<rect x="-858.4" y="34.8" width="3" height="3"/>
<rect x="-853.4" y="34.8" width="3" height="3"/>
<rect x="-853.4" y="39.8" width="3" height="3"/>
<rect x="-842.4" y="22.7" width="3" height="3.1"/>
<rect x="-842.4" y="27.7" width="2.9" height="2.9"/>
<rect x="-842.4" y="32.7" width="2.9" height="3"/>
<rect x="-842.4" y="37.7" width="3" height="3"/>
<rect x="-842.4" y="42.8" width="3" height="2.8"/>
<rect x="-837.4" y="22.8" width="3" height="2.9"/>
<rect x="-837.4" y="27.9" width="3" height="2.7"/>
<rect x="-832.4" y="27.7" width="2.9" height="3"/>
<rect x="-832.4" y="22.8" width="2.9" height="3"/>
<rect x="-832.4" y="34.7" width="3" height="5"/>
<rect x="-827.4" y="34.8" width="2.8" height="5"/>
<rect x="-832.5" y="41.8" width="3" height="4.2"/>
<rect x="-827.5" y="41.8" width="3" height="4.6"/>
<rect x="-814.4" y="29.8" width="4" height="7"/>
<rect x="-814.4" y="39.7" width="3.9" height="6.5"/>
<rect x="-809.4" y="29.8" width="4" height="6.9"/>
<rect x="-809.5" y="39.8" width="4.1" height="6.6"/>
<rect x="-803.4" y="29.8" width="4" height="7.1"/>
<rect x="-798.4" y="29.8" width="3.9" height="7"/>
<rect x="-798.4" y="39.8" width="3.9" height="6.3"/>
<rect x="-803.4" y="39.8" width="3.9" height="6.5"/>
<rect x="-792.5" y="29.8" width="4" height="7"/>
<rect x="-792.5" y="39.7" width="4" height="6.7"/>
<rect x="-787.4" y="39.8" width="3.9" height="6.5"/>
<rect x="-782.4" y="39.7" width="4" height="7"/>
<rect x="-782.4" y="29.8" width="3.9" height="7"/>
<rect x="-787.4" y="29.8" width="3.9" height="7"/>
<rect x="-767.5" y="34.8" width="3" height="5"/>
<rect x="-767.4" y="41.8" width="2.9" height="4.5"/>
<rect x="-762.4" y="41.8" width="3" height="4.9"/>
<rect x="-762.4" y="34.8" width="3" height="4.9"/>
<rect x="-767.5" y="34.8" width="3" height="5"/>
<rect x="-758.5" y="13.8" width="2.9" height="5.1"/>
<rect x="-763.4" y="13.8" width="3" height="4.9"/>
<rect x="-763.4" y="20.7" width="3" height="5"/>
<rect x="-758.4" y="20.8" width="2.8" height="4.9"/>
<rect x="-758.5" y="27.8" width="2.9" height="2.9"/>
<rect x="-763.4" y="27.7" width="2.9" height="2.9"/>
<rect x="-416.4" y="14.7" width="7.9" height="3"/>
<rect x="-416.4" y="19.7" width="8" height="3"/>
<rect x="-416.4" y="24.8" width="7.9" height="2.9"/>
<rect x="-416.4" y="29.8" width="8" height="3"/>
<rect x="-406.4" y="29.8" width="8" height="3"/>
<rect x="-406.4" y="24.8" width="8" height="3"/>
<rect x="-406.4" y="19.8" width="8" height="3"/>
<rect x="-406.4" y="14.8" width="7.9" height="2.9"/>
<rect x="-396.4" y="14.7" width="8" height="3"/>
<rect x="-396.4" y="19.8" width="8" height="3"/>
<rect x="-396.4" y="24.8" width="8" height="3"/>
<rect x="-396.4" y="29.8" width="8" height="3"/>
<rect x="-396.4" y="34.7" width="8" height="3.1"/>
<rect x="-396.4" y="39.8" width="7" height="3.1"/>
<rect x="-386.4" y="34.8" width="8" height="2.9"/>
<rect x="-386.4" y="29.8" width="8" height="3"/>
<rect x="-386.4" y="24.8" width="8" height="3"/>
<rect x="-386.4" y="19.7" width="8" height="3"/>
<rect x="-386.4" y="14.7" width="8" height="3"/>
<rect x="-112.4" y="14.8" width="3" height="3"/>
<rect x="-112.4" y="19.8" width="3" height="3"/>
<rect x="-112.4" y="24.8" width="3" height="3"/>
<rect x="-112.4" y="29.8" width="3" height="3"/>
<rect x="-112.4" y="34.8" width="3" height="3"/>
<rect x="-112.4" y="39.8" width="3" height="3"/>
<rect x="-122.4" y="39.8" width="3" height="3"/>
<rect x="-127.4" y="39.8" width="3" height="3"/>
<rect x="-117.4" y="39.8" width="3" height="3"/>
<rect x="-117.4" y="34.8" width="3" height="3"/>
<rect x="-117.4" y="29.8" width="3" height="3"/>
<rect x="-117.4" y="24.8" width="3" height="3"/>
<rect x="-117.4" y="19.8" width="3" height="3"/>
<rect x="-117.4" y="14.8" width="3" height="3"/>
<rect x="-122.4" y="14.8" width="3" height="3"/>
<rect x="-122.4" y="19.8" width="3" height="3"/>
<rect x="-122.4" y="24.8" width="3" height="3"/>
<rect x="-122.4" y="29.8" width="3" height="3"/>
<rect x="-122.4" y="34.8" width="3" height="3"/>
<rect x="-117.4" y="39.8" width="3" height="3"/>
<rect x="-127.4" y="34.8" width="3" height="3"/>
<rect x="-127.4" y="29.8" width="3" height="3"/>
<rect x="-127.4" y="24.8" width="3" height="3"/>
<rect x="-127.4" y="19.8" width="3" height="3"/>
<rect x="-127.4" y="14.8" width="3" height="3"/>
<rect x="-138.4" y="24.8" width="2.9" height="3"/>
<rect x="-138.4" y="29.7" width="2.9" height="3"/>
<rect x="-138.4" y="34.7" width="2.9" height="3"/>
<rect x="-138.4" y="39.7" width="2.9" height="3"/>
<rect x="-143.4" y="39.7" width="2.9" height="3"/>
<rect x="-143.4" y="34.7" width="2.9" height="3"/>
<rect x="-142.9" y="29.8" width="2.5" height="3"/>
<rect x="-143.4" y="24.7" width="2.9" height="3"/>
<rect x="-196.4" y="24.8" width="8" height="3"/>
<rect x="-186.4" y="24.8" width="8" height="3"/>
<rect x="-176.4" y="24.8" width="8" height="3"/>
<rect x="-166.4" y="24.8" width="8" height="3"/>
<rect x="-156.4" y="24.8" width="8" height="3"/>
<rect x="-156.4" y="29.8" width="8" height="3"/>
<rect x="-156.4" y="34.8" width="8" height="3"/>
<rect x="-156.4" y="39.8" width="8" height="3"/>
<rect x="-166.4" y="34.8" width="8" height="3"/>
<rect x="-176.4" y="34.8" width="8" height="3"/>
<rect x="-186.4" y="34.8" width="8" height="3"/>
<rect x="-196.4" y="34.8" width="8" height="3"/>
<rect x="-196.4" y="39.8" width="8" height="3"/>
<rect x="-186.4" y="39.8" width="8" height="3"/>
<rect x="-176.4" y="39.8" width="8" height="3"/>
<rect x="-166.4" y="39.8" width="8" height="3"/>
<rect x="-166.4" y="29.8" width="8" height="3"/>
<rect x="-166.4" y="24.8" width="8" height="3"/>
<rect x="-176.4" y="29.8" width="8" height="3"/>
<rect x="-176.4" y="24.8" width="8" height="3"/>
<rect x="-186.4" y="29.8" width="8" height="2.9"/>
<rect x="-196.4" y="29.8" width="8" height="3"/>
<rect x="-207.6" y="13.9" width="4.2" height="4.9"/>
<rect x="-207.4" y="20.8" width="3.8" height="5.1"/>
<rect x="-207" y="27.8" width="3.5" height="5.1"/>
<rect x="-207.2" y="34.8" width="3.7" height="4.6"/>
<rect x="-227.4" y="-77.1" width="3" height="20.3"/>
<rect x="-240.4" y="-40.2" width="3" height="3"/>
<rect x="-240.4" y="-35.2" width="3" height="3"/>
<rect x="-240.4" y="-30.2" width="3" height="3"/>
<rect x="-240.4" y="-24.2" width="3" height="3"/>
<rect x="-240.4" y="-19.3" width="3" height="3.1"/>
<rect x="-240.4" y="-14.2" width="3" height="3"/>
<rect x="-240.4" y="-9.3" width="3" height="3"/>
<rect x="-235.4" y="-24.2" width="3" height="3"/>
<rect x="-235.5" y="-19.2" width="3" height="3.1"/>
<rect x="-235.4" y="-14.2" width="3" height="3"/>
<rect x="-235.4" y="-9.3" width="3" height="3.1"/>
<rect x="-230.4" y="-9.2" width="3" height="3"/>
<rect x="-230.4" y="-14.2" width="3" height="3"/>
<rect x="-230.4" y="-19.2" width="3" height="3"/>
<rect x="-230.4" y="-24.2" width="3" height="3"/>
<rect x="-230.4" y="-30.2" width="3" height="3"/>
<rect x="-230.4" y="-35.2" width="3" height="2.9"/>
<rect x="-230.4" y="-40.2" width="3" height="3"/>
<rect x="-225.4" y="-40.2" width="3" height="3"/>
<rect x="-225.4" y="-35.2" width="3" height="3"/>
<rect x="-225.4" y="-30.2" width="3" height="3"/>
<rect x="-225.4" y="-24.2" width="3" height="3"/>
<rect x="-225.4" y="-19.2" width="3" height="3"/>
<rect x="-225.4" y="-14.2" width="3" height="3"/>
<rect x="-225.4" y="-9.2" width="3" height="3"/>
<rect x="-220.4" y="-9.2" width="3" height="3"/>
<rect x="-220.4" y="-14.2" width="3" height="3"/>
<rect x="-220.4" y="-19.2" width="3" height="3"/>
<rect x="-220.4" y="-24.2" width="3" height="3"/>
<rect x="-220.4" y="-30.3" width="3" height="3"/>
<rect x="-220.4" y="-35.2" width="3" height="3"/>
<rect x="-220.4" y="-40.2" width="3" height="3"/>
<rect x="-215.4" y="-40.2" width="3" height="3"/>
<rect x="-215.4" y="-35.2" width="3" height="3"/>
<rect x="-215.4" y="-30.2" width="3" height="3"/>
<rect x="-215.4" y="-24.2" width="3" height="3"/>
<rect x="-215.4" y="-19.2" width="3" height="3.1"/>
<rect x="-215.4" y="-14.2" width="3" height="3"/>
<rect x="-215.4" y="-9.3" width="3" height="3.1"/>
<rect x="-235.4" y="-40.2" width="3" height="3"/>
<rect x="-235.4" y="-35.3" width="3" height="3"/>
<rect x="-235.5" y="-30.2" width="3" height="3"/>
<rect x="-244.6" y="-4.3" width="36" height="5"/>
<rect x="-237.3" y="0.1" width="1.9" height="4.8"/>
<rect x="-232.4" y="0.3" width="1.9" height="4.9"/>
<rect x="-227.4" width="2" height="5"/>
<rect x="-222.5" width="2.1" height="5.3"/>
<rect x="-217.4" y="-0.9" width="2" height="6.3"/>
<rect x="-244.8" y="3.9" width="36.9" height="3.8"/>
<rect x="-240.4" y="9.8" width="3" height="3"/>
<rect x="-240.4" y="14.7" width="3" height="3"/>
<rect x="-240.4" y="19.7" width="3" height="3.1"/>
<rect x="-240.4" y="25.8" width="3" height="3"/>
<rect x="-240.4" y="30.7" width="3" height="3"/>
<rect x="-235.5" y="9.8" width="3.1" height="2.9"/>
<rect x="-235.4" y="14.7" width="3" height="3"/>
<rect x="-235.4" y="19.8" width="3" height="2.9"/>
<rect x="-235.4" y="25.8" width="3" height="3"/>
<rect x="-235.4" y="30.7" width="2.9" height="3.1"/>
<rect x="-230.4" y="9.7" width="3" height="3"/>
<rect x="-230.4" y="14.7" width="3" height="3"/>
<rect x="-230.4" y="19.8" width="3" height="3"/>
<rect x="-230.4" y="25.7" width="3" height="3"/>
<rect x="-230.4" y="30.7" width="2.9" height="3"/>
<rect x="-225.4" y="30.8" width="3" height="3"/>
<rect x="-220.4" y="30.7" width="2.9" height="3"/>
<rect x="-220.4" y="35.7" width="2.9" height="3"/>
<rect x="-220.4" y="40.7" width="2.9" height="3"/>
<rect x="-225.4" y="35.7" width="2.9" height="3"/>
<rect x="-225.4" y="40.7" width="2.9" height="3"/>
<rect x="-230.4" y="40.7" width="2.9" height="3"/>
<rect x="-230.4" y="35.7" width="2.9" height="3"/>
<rect x="-235.4" y="35.7" width="2.9" height="3"/>
<rect x="-235.4" y="40.7" width="2.9" height="3"/>
<rect x="-240.4" y="40.7" width="2.9" height="3"/>
<rect x="-240.4" y="35.7" width="2.9" height="3"/>
<rect x="-215.4" y="30.8" width="3" height="3.1"/>
<rect x="-215.5" y="35.7" width="3" height="3.1"/>
<rect x="-215.4" y="40.7" width="2.9" height="3.1"/>
<rect x="-225.4" y="25.8" width="2.9" height="2.9"/>
<rect x="-220.4" y="25.8" width="3" height="2.9"/>
<rect x="-215.5" y="25.8" width="3" height="2.9"/>
<rect x="-215.4" y="19.8" width="2.9" height="3"/>
<rect x="-215.5" y="14.7" width="3" height="3"/>
<rect x="-215.4" y="9.7" width="3" height="3"/>
<rect x="-220.5" y="9.7" width="3.1" height="3"/>
<rect x="-220.4" y="14.7" width="3" height="3.1"/>
<rect x="-220.4" y="19.8" width="3" height="3"/>
<rect x="-225.4" y="9.8" width="3" height="2.9"/>
<rect x="-225.4" y="14.8" width="3" height="3"/>
<rect x="-225.4" y="19.8" width="3" height="3"/>
<rect x="-244.4" y="-1.1" width="4" height="6.5"/>
<rect x="-240.4" y="-48.6" width="28" height="3"/>
<rect x="-245.1" y="-56.7" class="st0" width="37" height="7.1"/>
<rect x="-253" y="26.8" width="3.5" height="2.9"/>
<rect x="-252.8" y="31.8" width="3.2" height="3"/>
<rect x="-247.4" y="26.9" width="1.5" height="2.8"/>
<rect x="-247.4" y="31.8" width="1.3" height="3"/>
<rect x="-259.4" y="-4.6" width="1" height="50.7"/>
<rect x="-263.3" y="-4.5" width="0.9" height="50.8"/>
<rect x="-267.4" y="-4.6" width="1" height="50.5"/>
<rect x="-271.4" y="-4.6" width="1" height="50.5"/>
<rect x="-286.4" y="-4.8" width="1" height="50.7"/>
<rect x="-290.4" y="-4.7" width="1" height="50.6"/>
<rect x="-294.4" y="-4.5" width="1" height="51.2"/>
<rect x="-298.4" y="-4.9" width="1" height="50.9"/>
<rect x="-337.4" y="8.7" width="2.9" height="2.9"/>
<rect x="-337.4" y="13.8" width="2.9" height="2.9"/>
<rect x="-337.4" y="18.8" width="2.9" height="2.9"/>
<rect x="-337.4" y="23.8" width="3" height="3.1"/>
<rect x="-337.4" y="28.8" width="2.9" height="3"/>
<rect x="-332.4" y="8.7" width="2.9" height="3.1"/>
<rect x="-332.5" y="13.7" width="3.2" height="2.9"/>
<rect x="-332.4" y="18.7" width="3" height="3"/>
<rect x="-332.4" y="23.8" width="3" height="3"/>
<rect x="-332.4" y="28.8" width="3" height="3"/>
<rect x="-327.4" y="28.8" width="3" height="3"/>
<rect x="-322.4" y="28.7" width="3" height="3"/>
<rect x="-322.4" y="33.7" width="3" height="3"/>
<rect x="-322.4" y="38.7" width="3" height="3"/>
<rect x="-327.4" y="38.7" width="3" height="3"/>
<rect x="-327.4" y="33.7" width="3" height="3"/>
<rect x="-332.4" y="33.7" width="3" height="3"/>
<rect x="-332.4" y="38.7" width="3" height="3"/>
<rect x="-337.4" y="38.7" width="3" height="3"/>
<rect x="-337.4" y="33.7" width="3" height="3"/>
<rect x="-322.4" y="23.7" width="3" height="3"/>
<rect x="-322.4" y="18.8" width="3" height="2.9"/>
<rect x="-322.4" y="13.8" width="3" height="3"/>
<rect x="-322.4" y="8.7" width="3" height="3"/>
<rect x="-327.4" y="23.8" width="3" height="2.9"/>
<rect x="-327.4" y="18.8" width="3" height="3"/>
<rect x="-327.4" y="13.8" width="3" height="3"/>
<rect x="-327.4" y="8.8" width="3" height="3"/>
<rect x="-741.4" y="-0.3" width="18" height="3"/>
<rect x="-741.4" y="4.8" width="17.8" height="2.9"/>
<rect x="-741.4" y="9.9" width="17.9" height="2.9"/>
<rect x="-741.4" y="14.7" width="18" height="2.8"/>
<rect x="-741.4" y="19.7" width="17.9" height="3"/>
<rect x="-741.5" y="24.7" width="18" height="3.1"/>
<rect x="-741.4" y="29.8" width="18" height="2.9"/>
<rect x="-741.4" y="34.7" width="17.9" height="2.9"/>
<rect x="-741.4" y="39.8" width="17.9" height="2.8"/>
<rect x="-708.5" y="8.8" width="3" height="3"/>
<rect x="-708.5" y="13.7" width="2.9" height="3"/>
<rect x="-708.4" y="18.8" width="2.9" height="3"/>
<rect x="-708.4" y="23.7" width="3" height="3"/>
<rect x="-708.4" y="28.8" width="3" height="3"/>
<rect x="-708.4" y="33.7" width="3" height="3"/>
<rect x="-708.4" y="38.8" width="3" height="3"/>
<rect x="-708.4" y="43.8" width="3" height="2.3"/>
<rect x="-703.4" y="43.8" width="3" height="2.7"/>
<rect x="-698.5" y="43.8" width="3" height="2.1"/>
<rect x="-693.4" y="43.8" width="3" height="2.5"/>
<rect x="-703.4" y="8.8" width="3" height="3"/>
<rect x="-703.4" y="13.7" width="3" height="3.1"/>
<rect x="-703.4" y="18.7" width="3" height="3"/>
<rect x="-703.4" y="23.7" width="3" height="3"/>
<rect x="-703.4" y="28.7" width="3" height="3"/>
<rect x="-703.4" y="33.8" width="3" height="3"/>
<rect x="-698.5" y="8.7" width="3" height="3"/>
<rect x="-698.5" y="13.8" width="3" height="3"/>
<rect x="-698.4" y="18.7" width="3" height="3.1"/>
<rect x="-698.4" y="23.7" width="3" height="3"/>
<rect x="-698.4" y="28.8" width="3" height="3.1"/>
<rect x="-698.4" y="33.7" width="3" height="3"/>
<rect x="-698.4" y="38.7" width="3" height="3"/>
<rect x="-693.4" y="38.8" width="3" height="3"/>
<rect x="-693.4" y="33.7" width="3" height="3.1"/>
<rect x="-693.4" y="28.8" width="3" height="3"/>
<rect x="-693.4" y="23.8" width="3" height="3"/>
<rect x="-693.4" y="18.8" width="2.9" height="3"/>
<rect x="-693.4" y="13.7" width="3" height="3"/>
<rect x="-693.4" y="8.7" width="3" height="3.1"/>
<rect x="-703.4" y="38.8" width="3" height="3"/>
<rect x="-670.4" y="34.7" width="3" height="3.1"/>
<rect x="-665.4" y="34.8" width="3" height="3.1"/>
<rect x="-660.4" y="34.7" width="3" height="3"/>
<rect x="-660.4" y="39.8" width="3" height="3"/>
<rect x="-665.4" y="39.7" width="3" height="3.1"/>
<rect x="-670.4" y="39.7" width="3" height="3"/>
<rect x="-647.4" y="39.7" width="3.1" height="3"/>
<rect x="-642.4" y="39.8" width="3" height="2.9"/>
<rect x="-646.4" y="25.7" width="3" height="5"/>
<rect x="-651.4" y="25.8" width="2.9" height="5"/>
<rect x="-646.4" y="32.8" width="3" height="2.6"/>
<rect x="-650.7" y="32.8" width="2.3" height="2.8"/>
<rect x="-676.5" y="-0.2" width="3" height="2.9"/>
<rect x="-676.4" y="4.7" width="3" height="3"/>
<rect x="-676.4" y="9.7" width="3" height="3"/>
<rect x="-676.4" y="14.7" width="3" height="3.1"/>
<rect x="-676.4" y="19.7" width="3" height="3"/>
<rect x="-676.4" y="24.7" width="3" height="3.1"/>
<rect x="-671.4" y="24.8" width="3" height="3"/>
<rect x="-666.4" y="24.8" width="3" height="3"/>
<rect x="-661.4" y="24.7" width="3" height="3"/>
<rect x="-661.4" y="19.8" width="3" height="3"/>
<rect x="-666.4" y="19.8" width="3" height="3"/>
<rect x="-671.4" y="19.7" width="3" height="3"/>
<rect x="-661.4" y="14.7" width="3" height="3"/>
<rect x="-666.4" y="14.8" width="3" height="3"/>
<rect x="-671.4" y="14.8" width="3" height="3"/>
<rect x="-671.4" y="9.8" width="3" height="3"/>
<rect x="-671.4" y="4.7" width="3" height="3"/>
<rect x="-671.4" y="-0.2" width="3" height="3"/>
<rect x="-666.4" y="9.7" width="2.9" height="3"/>
<rect x="-661.4" y="9.7" width="3" height="3"/>
<rect x="-661.4" y="4.7" width="3" height="3"/>
<rect x="-661.4" y="-0.2" width="3" height="3"/>
<rect x="-666.4" y="4.7" width="3" height="3"/>
<rect x="-666.5" y="-0.3" width="3" height="3"/>
<rect x="-644.4" y="-10.3" width="3" height="3.1"/>
<rect x="-644.4" y="-5.2" width="2.9" height="3"/>
<rect x="-644.4" y="-0.2" width="2.9" height="3"/>
<rect x="-644.4" y="4.8" width="3" height="3"/>
<rect x="-644.4" y="9.8" width="3" height="3"/>
<rect x="-644.4" y="14.8" width="3" height="2.9"/>
<rect x="-639.4" y="-10.2" width="2.9" height="3"/>
<rect x="-639.4" y="-5.2" width="3" height="3"/>
<rect x="-639.4" y="-0.2" width="3" height="3"/>
<rect x="-639.4" y="4.8" width="3" height="3"/>
<rect x="-639.4" y="9.8" width="3" height="3"/>
<rect x="-639.4" y="14.8" width="3" height="3"/>
<rect x="-634.4" y="14.8" width="3" height="2.9"/>
<rect x="-629.4" y="14.8" width="3" height="2.8"/>
<rect x="-629.4" y="9.8" width="3" height="3"/>
<rect x="-634.4" y="9.8" width="3" height="3"/>
<rect x="-634.4" y="4.8" width="3.1" height="2.9"/>
<rect x="-634.4" y="-0.2" width="2.9" height="3"/>
<rect x="-634.4" y="-5.2" width="2.9" height="3"/>
<rect x="-634.4" y="-10.2" width="2.9" height="3"/>
<rect x="-629.4" y="-10.2" width="3" height="3"/>
<rect x="-629.4" y="-5.2" width="3" height="3"/>
<rect x="-629.4" y="-0.2" width="3" height="3"/>
<rect x="-629.4" y="4.8" width="3" height="2.9"/>
<rect x="-629.4" y="9.8" width="3" height="3"/>
<rect x="-629.4" y="14.8" width="3" height="2.8"/>
<rect x="-878.4" y="23.8" width="2.9" height="4.8"/>
<rect x="-433.4" y="20.8" width="3" height="5"/>
<rect x="-438.4" y="20.8" width="3" height="5"/>
<rect x="-433.4" y="27.8" width="3" height="5"/>
<rect x="-438.4" y="27.8" width="3" height="5.1"/>
<rect x="-406.4" y="34.8" width="8" height="3"/>
<rect x="-396.4" y="39.8" width="8" height="3.1"/>
<rect x="-406.4" y="39.8" width="7.9" height="3"/>
<rect x="-416.3" y="34.9" width="7.8" height="2.9"/>
<rect x="-416.5" y="39.8" width="7.9" height="3"/>
<rect x="-386.3" y="39.8" width="8" height="3"/>
<rect x="-433.4" y="34.8" width="3" height="6"/>
<rect x="-438.4" y="34.9" width="3" height="5.8"/>
<rect x="-469.4" y="29.8" width="3" height="3"/>
<rect x="-474.4" y="29.8" width="3" height="3"/>
<rect x="-474.3" y="34.9" width="3" height="2.9"/>
<rect x="-469.3" y="34.9" width="2.8" height="3"/>
<rect x="-469.3" y="40.5" width="2.8" height="2.6"/>
<rect x="-474.3" y="40.4" width="2.5" height="2.6"/>
<rect x="-364.4" y="29.7" width="2.9" height="3"/>
<rect x="-359.5" y="29.6" width="3" height="3.1"/>
<rect x="-354.2" y="29.5" width="2.5" height="3.4"/>
<rect x="-364.3" y="34.5" width="2.9" height="3.4"/>
<rect x="-359.3" y="35" width="2.9" height="3.2"/>
<rect x="-359.4" y="39.8" width="2.9" height="3.2"/>
<rect x="-364.4" y="39.7" width="2.9" height="3.2"/>
<rect x="-354.1" y="39.8" width="2.9" height="3.2"/>
<rect x="-354.1" y="34.8" width="2.9" height="3.2"/>
<rect x="-558.6" y="21.7" width="3.1" height="5"/>
<rect x="-553.6" y="21.5" width="3.1" height="5.2"/>
<rect x="-558.4" y="28.8" width="3" height="4.8"/>
<rect x="-553.4" y="28.8" width="3" height="5"/>
<rect x="-558.4" y="35.8" width="2.9" height="5"/>
<rect x="-553.4" y="35.8" width="3.1" height="5"/>
<rect x="-575.4" y="24.8" width="3" height="2.9"/>
<rect x="-575.4" y="29.7" width="2.9" height="3"/>
<rect x="-575.4" y="34.8" width="2.9" height="3"/>
<rect x="-575.4" y="39.8" width="2.9" height="3"/>
<rect x="-579.4" y="39.7" width="3" height="3.1"/>
<rect x="-579.4" y="34.8" width="3" height="2.9"/>
<rect x="-579.4" y="29.7" width="2.9" height="3"/>
<rect x="-579.4" y="24.7" width="3" height="3"/>
<rect x="-575.4" y="24.7" width="3" height="3.1"/>
<rect x="-611.4" y="4.7" width="8" height="3"/>
<rect x="-601.4" y="4.8" width="7.9" height="3"/>
<rect x="-601.5" y="9.7" width="8" height="2.9"/>
<rect x="-611.5" y="9.8" width="8.1" height="2.9"/>
<rect x="-611.4" y="14.8" width="8" height="3"/>
<rect x="-611.4" y="19.8" width="8" height="2.9"/>
<rect x="-611.5" y="24.8" width="8" height="2.9"/>
<rect x="-611.4" y="29.7" width="8" height="3"/>
<rect x="-601.4" y="14.8" width="8" height="3"/>
<rect x="-601.4" y="19.8" width="7.9" height="2.9"/>
<rect x="-601.5" y="24.8" width="8.1" height="2.9"/>
<rect x="-601.4" y="29.7" width="8" height="3"/>
<rect x="-601.3" y="34.8" width="7.9" height="3"/>
<rect x="-601.5" y="39.7" width="8" height="3"/>
<rect x="-611.6" y="34.7" width="8" height="3.1"/>
<rect x="-611.6" y="39.8" width="8" height="3.1"/>
<rect x="-629.4" y="21.7" width="2.9" height="5"/>
<rect x="-624.4" y="21.8" width="2.9" height="5.1"/>
<rect x="-624.4" y="28.7" width="3" height="5"/>
<rect x="-629.4" y="28.7" width="3" height="5"/>
<rect x="-624.3" y="35.7" width="2.9" height="5.1"/>
<rect x="-629.4" y="35.7" width="3" height="5.1"/>
<rect x="-624.5" y="42.7" width="3" height="3.2"/>
<rect x="-629.4" y="42.7" width="2.9" height="3.1"/>
<ellipse cx="-575.9" cy="15.3" rx="2.5" ry="2.5"/>
<rect x="-626.3" y="-21.1" width="2.9" height="5.3"/>
<rect x="-631.4" y="-21.2" width="2.1" height="5.4"/>
<rect x="-636.4" y="-21.1" width="1.9" height="5.9"/>
<rect x="-641.4" y="-21.8" width="2" height="6.7"/>
<rect x="-647.5" y="-21.2" width="3" height="6.2"/>
<polygon points="-635.4,-31.7 -623.3,-21.1 -647.5,-21.1 "/>
<rect x="-522.3" y="34.8" width="2.6" height="3"/>
<rect x="-522.3" y="39.8" width="2.6" height="3"/>
<rect x="-517.3" y="40.8" width="2.6" height="3"/>
<rect x="-517.3" y="34.8" width="2.6" height="3"/>
<g>
	<polygon points="0.3,28.1 4,32.1 33.8,32.1 37.2,28.1 	"/>
	<polygon class="st1" points="19.9,3.7 20,25.4 34.7,25.2 	"/>
	<polygon class="st1" points="16.3,25.2 4.9,25.3 16.5,7.6 	"/>
	<rect x="15.6" y="14.8" width="1.5" height="13.9"/>
	<rect x="19.2" y="14.9" width="1.5" height="13.9"/>
</g>
</svg>
