<?xml version="1.0" encoding="utf-8"?>
<!-- Generator: Adobe Illustrator 23.0.0, SVG Export Plug-In . SVG Version: 6.00 Build 0)  -->
<svg version="1.1" id="Layer_1" xmlns="http://www.w3.org/2000/svg" xmlns:xlink="http://www.w3.org/1999/xlink" x="0px" y="0px"
	 viewBox="0 0 817.9 177.1" style="enable-background:new 0 0 817.9 177.1;" xml:space="preserve">
<style type="text/css">
	.st0{fill:none;stroke:#000000;stroke-width:2.5;stroke-miterlimit:10;}
	.st1{display:none;}
	.st2{display:inline;}
	.st3{display:inline;fill:none;stroke:#000000;stroke-width:1.5;stroke-miterlimit:10;}
</style>
<rect x="-7.7" y="129" width="829.7" height="3.5"/>
<rect x="17.6" y="96.9" class="st0" width="16.4" height="33.3"/>
<rect x="52" y="110" class="st0" width="23" height="20.9"/>
<rect x="34.1" y="115" class="st0" width="18" height="15.2"/>
<polyline class="st0" points="52.2,114.5 38.2,114.5 38.2,88.9 55,88.9 55,109.5 "/>
<polyline class="st0" points="72.9,109.7 72.9,103.2 96.5,103.2 96.5,114.5 "/>
<rect x="85.1" y="114.8" class="st0" width="15.2" height="16.2"/>
<rect x="100.2" y="108" class="st0" width="49.1" height="22.6"/>
<rect x="149.7" y="115" class="st0" width="15.3" height="16.1"/>
<polyline class="st0" points="153,115.3 153,94.1 169.9,94.1 169.9,131.2 "/>
<polyline class="st0" points="174,130.5 174,79.3 203,79.3 203,130.5 "/>
<rect x="208" y="88" class="st0" width="27.2" height="43"/>
<polyline class="st0" points="239.8,131.4 239.8,79.1 267.4,79.1 267.4,104.4 "/>
<rect x="246.1" y="114.7" class="st0" width="23.1" height="16.3"/>
<polyline class="st0" points="264.3,114.1 264.3,104.8 281.9,104.8 281.9,119.8 "/>
<line class="st0" x1="268.1" y1="119.2" x2="287.1" y2="119.2"/>
<polyline class="st0" points="287,130.4 287,102.3 303.8,102.3 "/>
<polyline class="st0" points="303.7,130.5 303.7,83.4 333.6,83.4 333.6,130.5 "/>
<polyline class="st0" points="272.1,104.4 272.1,68.7 298.9,68.7 298.9,102 "/>
<rect x="338" y="104" class="st0" width="14.2" height="27"/>
<rect x="357.9" y="101.8" class="st0" width="17.2" height="29.2"/>
<rect x="392.3" y="114.3" class="st0" width="19.1" height="16.3"/>
<rect x="412" y="21.9" class="st0" width="29.3" height="108.6"/>
<rect x="441.7" y="109.8" class="st0" width="18.6" height="21.1"/>
<rect x="477.8" y="101.4" class="st0" width="17.2" height="29.6"/>
<rect x="500.3" y="94.3" class="st0" width="45.9" height="36.5"/>
<rect x="552" y="110.1" class="st0" width="23.1" height="20.2"/>
<rect x="578.9" y="87.6" class="st0" width="27.4" height="42.1"/>
<rect x="617.9" y="77.8" class="st0" width="23.4" height="52.8"/>
<rect x="645.3" y="78.2" class="st0" width="21.8" height="52.3"/>
<rect x="676.1" y="38.1" class="st0" width="37" height="92.9"/>
<rect x="788.9" y="94.3" class="st0" width="26.5" height="36.9"/>
<rect x="719.9" y="104" class="st0" width="57.4" height="27"/>
<rect x="777.3" y="105.2" class="st0" width="11.4" height="25.8"/>
<polyline class="st0" points="711.9,93.4 722.8,93.4 722.8,103.6 "/>
<line class="st0" x1="666.6" y1="106.8" x2="677.1" y2="106.8"/>
<rect x="623.8" y="73.7" class="st0" width="17.6" height="4.2"/>
<rect x="628.3" y="68.7" class="st0" width="13" height="4.1"/>
<rect x="645.4" y="68.6" class="st0" width="12.7" height="4.4"/>
<rect x="645.3" y="73.8" class="st0" width="17.5" height="3.9"/>
<rect x="460" y="114.6" width="17.3" height="2.5"/>
<rect x="504.3" y="89.7" width="38.3" height="3.8"/>
<rect x="575.4" y="85.6" width="34.1" height="2.9"/>
<rect x="640.1" y="56.1" width="2.5" height="12.8"/>
<rect x="644.1" y="55.9" width="2.5" height="12.8"/>
<path class="st0" d="M628.7,68.9c0-6.4,5.2-11.6,11.6-11.6"/>
<path class="st0" d="M657,68.7c0-6.4-5.2-11.6-11.6-11.6"/>
<rect x="428.1" y="21.7" width="2.5" height="109.1"/>
<rect x="411.5" y="31.4" width="29.3" height="1"/>
<rect x="412.2" y="37.6" width="29.3" height="1"/>
<rect x="412.2" y="43.6" width="29.3" height="1"/>
<rect x="412.2" y="49.6" width="29.3" height="1"/>
<rect x="412.2" y="55.6" width="29.3" height="1"/>
<rect x="412.2" y="61.6" width="29.3" height="1"/>
<rect x="412.2" y="67.6" width="29.3" height="1"/>
<rect x="412.2" y="79.6" width="29.3" height="1"/>
<rect x="412.2" y="73.6" width="29.3" height="1"/>
<rect x="412.2" y="85.6" width="29.3" height="1"/>
<rect x="411.2" y="91.6" width="29.3" height="1"/>
<rect x="411.2" y="97.6" width="29.3" height="1"/>
<rect x="411.2" y="103.6" width="29.3" height="1"/>
<rect x="411.2" y="109.6" width="29.3" height="1"/>
<rect x="411.2" y="115.6" width="29.3" height="1"/>
<rect x="411.2" y="121.6" width="29.3" height="1"/>
<rect x="340.2" y="93.9" class="st0" width="9.4" height="9.9"/>
<polygon points="350.4,92.8 339.8,92.7 345.2,83.6 "/>
<rect x="241.6" y="73.5" width="23.9" height="5"/>
<rect x="209.6" y="82.4" width="24" height="5.2"/>
<rect x="172.6" y="74.6" width="2.9" height="9.1"/>
<rect x="201.6" y="74.6" width="3" height="9.1"/>
<rect x="21.6" y="100.6" width="2.8" height="5"/>
<rect x="21.6" y="107.6" width="3" height="4.9"/>
<rect x="21.6" y="114.6" width="2.9" height="5"/>
<rect x="21.6" y="121.6" width="3" height="5.1"/>
<rect x="26.6" y="100.6" width="3" height="5"/>
<rect x="26.6" y="107.6" width="3" height="5"/>
<rect x="26.6" y="114.6" width="3" height="5"/>
<rect x="26.6" y="121.6" width="3" height="5"/>
<rect x="42.6" y="93.6" width="3" height="5"/>
<rect x="42.6" y="100.5" width="3" height="5"/>
<rect x="47.6" y="93.6" width="3" height="5"/>
<rect x="47.6" y="100.5" width="2.9" height="5"/>
<rect x="47.7" y="107.6" width="2.9" height="5"/>
<rect x="39.6" y="118.6" width="3" height="3"/>
<rect x="44.6" y="118.6" width="3" height="3"/>
<rect x="44.6" y="123.5" width="2.9" height="3"/>
<rect x="39.6" y="123.6" width="3" height="3"/>
<rect x="57.6" y="113.6" width="3" height="3"/>
<rect x="62.6" y="113.6" width="2.9" height="2.9"/>
<rect x="67.6" y="113.6" width="3" height="3"/>
<rect x="57.6" y="118.7" width="3" height="3"/>
<rect x="57.6" y="123.6" width="3" height="3"/>
<rect x="62.6" y="123.5" width="3" height="3"/>
<rect x="62.6" y="118.6" width="3" height="3"/>
<rect x="67.6" y="118.6" width="3" height="3"/>
<rect x="67.6" y="123.6" width="3" height="3"/>
<rect x="78.6" y="106.5" width="3" height="3.1"/>
<rect x="78.6" y="111.6" width="2.9" height="2.9"/>
<rect x="78.6" y="116.5" width="2.9" height="3"/>
<rect x="78.6" y="121.5" width="3" height="3"/>
<rect x="78.6" y="126.6" width="3" height="2.8"/>
<rect x="83.6" y="106.6" width="3" height="2.9"/>
<rect x="83.6" y="111.7" width="3" height="2.7"/>
<rect x="88.6" y="111.6" width="2.9" height="3"/>
<rect x="88.6" y="106.6" width="2.9" height="3"/>
<rect x="88.6" y="118.6" width="3" height="5"/>
<rect x="93.6" y="118.7" width="2.8" height="5"/>
<rect x="88.6" y="125.6" width="3" height="4.2"/>
<rect x="93.6" y="125.7" width="3" height="4.6"/>
<rect x="106.6" y="113.6" width="4" height="7"/>
<rect x="106.6" y="123.5" width="3.9" height="6.5"/>
<rect x="111.6" y="113.6" width="4" height="6.9"/>
<rect x="111.6" y="123.6" width="4.1" height="6.6"/>
<rect x="117.6" y="113.6" width="4" height="7.1"/>
<rect x="122.6" y="113.6" width="3.9" height="7"/>
<rect x="122.6" y="123.7" width="3.9" height="6.3"/>
<rect x="117.6" y="123.7" width="3.9" height="6.5"/>
<rect x="128.5" y="113.6" width="4" height="7"/>
<rect x="128.6" y="123.5" width="4" height="6.7"/>
<rect x="133.6" y="123.7" width="3.9" height="6.5"/>
<rect x="138.6" y="123.5" width="4" height="7"/>
<rect x="138.6" y="113.6" width="3.9" height="7"/>
<rect x="133.6" y="113.6" width="3.9" height="7"/>
<rect x="153.5" y="118.6" width="3" height="5"/>
<rect x="153.7" y="125.6" width="2.9" height="4.5"/>
<rect x="158.6" y="125.7" width="3" height="4.9"/>
<rect x="158.6" y="118.6" width="3" height="4.9"/>
<rect x="153.5" y="118.6" width="3" height="5"/>
<rect x="162.5" y="97.6" width="2.9" height="5.1"/>
<rect x="157.6" y="97.6" width="3" height="4.9"/>
<rect x="157.6" y="104.6" width="3" height="5"/>
<rect x="162.7" y="104.6" width="2.8" height="4.9"/>
<rect x="162.6" y="111.6" width="2.9" height="2.9"/>
<rect x="157.6" y="111.5" width="2.9" height="2.9"/>
<rect x="504.6" y="98.5" width="7.9" height="3"/>
<rect x="504.6" y="103.5" width="8" height="3"/>
<rect x="504.7" y="108.6" width="7.9" height="2.9"/>
<rect x="504.6" y="113.6" width="8" height="3"/>
<rect x="514.6" y="113.6" width="8" height="3"/>
<rect x="514.6" y="108.6" width="8" height="3"/>
<rect x="514.6" y="103.6" width="8" height="3"/>
<rect x="514.6" y="98.6" width="7.9" height="2.9"/>
<rect x="524.6" y="98.5" width="8" height="3"/>
<rect x="524.6" y="103.6" width="8" height="3"/>
<rect x="524.6" y="108.6" width="8" height="3"/>
<rect x="524.6" y="113.6" width="8" height="3"/>
<rect x="524.6" y="118.5" width="8" height="3.1"/>
<rect x="524.6" y="123.6" width="7" height="3.1"/>
<rect x="534.6" y="118.6" width="8" height="2.9"/>
<rect x="534.6" y="113.6" width="8" height="3"/>
<rect x="534.6" y="108.6" width="8" height="3"/>
<rect x="534.6" y="103.6" width="8" height="3"/>
<rect x="534.6" y="98.5" width="8" height="3"/>
<rect x="808.6" y="98.6" width="3" height="3"/>
<rect x="808.6" y="103.6" width="3" height="3"/>
<rect x="808.6" y="108.6" width="3" height="3"/>
<rect x="808.6" y="113.6" width="3" height="3"/>
<rect x="808.6" y="118.6" width="3" height="3"/>
<rect x="808.6" y="123.6" width="3" height="3"/>
<rect x="798.6" y="123.6" width="3" height="3"/>
<rect x="793.6" y="123.6" width="3" height="3"/>
<rect x="803.6" y="123.6" width="3" height="3"/>
<rect x="803.6" y="118.6" width="3" height="3"/>
<rect x="803.6" y="113.6" width="3" height="3"/>
<rect x="803.6" y="108.6" width="3" height="3"/>
<rect x="803.6" y="103.6" width="3" height="3"/>
<rect x="803.6" y="98.6" width="3" height="3"/>
<rect x="798.6" y="98.6" width="3" height="3"/>
<rect x="798.6" y="103.6" width="3" height="3"/>
<rect x="798.6" y="108.6" width="3" height="3"/>
<rect x="798.6" y="113.6" width="3" height="3"/>
<rect x="798.6" y="118.6" width="3" height="3"/>
<rect x="803.6" y="123.6" width="3" height="3"/>
<rect x="793.6" y="118.6" width="3" height="3"/>
<rect x="793.6" y="113.6" width="3" height="3"/>
<rect x="793.6" y="108.6" width="3" height="3"/>
<rect x="793.6" y="103.6" width="3" height="3"/>
<rect x="793.6" y="98.6" width="3" height="3"/>
<rect x="782.6" y="108.6" width="2.9" height="3"/>
<rect x="782.6" y="113.6" width="2.9" height="3"/>
<rect x="782.6" y="118.6" width="2.9" height="3"/>
<rect x="782.6" y="123.6" width="2.9" height="3"/>
<rect x="777.6" y="123.6" width="2.9" height="3"/>
<rect x="777.6" y="118.6" width="2.9" height="3"/>
<rect x="778.1" y="113.6" width="2.5" height="3"/>
<rect x="777.6" y="108.5" width="2.9" height="3"/>
<rect x="724.6" y="108.6" width="8" height="3"/>
<rect x="734.6" y="108.6" width="8" height="3"/>
<rect x="744.6" y="108.6" width="8" height="3"/>
<rect x="754.6" y="108.6" width="8" height="3"/>
<rect x="764.6" y="108.6" width="8" height="3"/>
<rect x="764.6" y="113.6" width="8" height="3"/>
<rect x="764.6" y="118.6" width="8" height="3"/>
<rect x="764.6" y="123.6" width="8" height="3"/>
<rect x="754.6" y="118.6" width="8" height="3"/>
<rect x="744.6" y="118.6" width="8" height="3"/>
<rect x="734.6" y="118.6" width="8" height="3"/>
<rect x="724.6" y="118.6" width="8" height="3"/>
<rect x="724.6" y="123.6" width="8" height="3"/>
<rect x="734.6" y="123.6" width="8" height="3"/>
<rect x="744.6" y="123.6" width="8" height="3"/>
<rect x="754.6" y="123.6" width="8" height="3"/>
<rect x="754.6" y="113.6" width="8" height="3"/>
<rect x="754.6" y="108.6" width="8" height="3"/>
<rect x="744.6" y="113.6" width="8" height="3"/>
<rect x="744.6" y="108.6" width="8" height="3"/>
<rect x="734.6" y="113.6" width="8" height="2.9"/>
<rect x="724.6" y="113.6" width="8" height="3"/>
<rect x="713.4" y="97.7" width="4.2" height="4.9"/>
<rect x="713.7" y="104.6" width="3.8" height="5.1"/>
<rect x="714" y="111.6" width="3.5" height="5.1"/>
<rect x="713.8" y="118.6" width="3.7" height="4.6"/>
<rect x="693.6" y="6.7" width="3" height="20.3"/>
<rect x="680.6" y="43.6" width="3" height="3"/>
<rect x="680.6" y="48.6" width="3" height="3"/>
<rect x="680.6" y="53.6" width="3" height="3"/>
<rect x="680.6" y="59.6" width="3" height="3"/>
<rect x="680.6" y="64.6" width="3" height="3.1"/>
<rect x="680.6" y="69.6" width="3" height="3"/>
<rect x="680.6" y="74.6" width="3" height="3"/>
<rect x="685.6" y="59.6" width="3" height="3"/>
<rect x="685.6" y="64.6" width="3" height="3.1"/>
<rect x="685.6" y="69.6" width="3" height="3"/>
<rect x="685.6" y="74.6" width="3" height="3.1"/>
<rect x="690.6" y="74.6" width="3" height="3"/>
<rect x="690.6" y="69.6" width="3" height="3"/>
<rect x="690.6" y="64.6" width="3" height="3"/>
<rect x="690.6" y="59.6" width="3" height="3"/>
<rect x="690.6" y="53.6" width="3" height="3"/>
<rect x="690.6" y="48.6" width="3" height="2.9"/>
<rect x="690.6" y="43.6" width="3" height="3"/>
<rect x="695.6" y="43.6" width="3" height="3"/>
<rect x="695.6" y="48.6" width="3" height="3"/>
<rect x="695.6" y="53.6" width="3" height="3"/>
<rect x="695.6" y="59.6" width="3" height="3"/>
<rect x="695.6" y="64.6" width="3" height="3"/>
<rect x="695.6" y="69.6" width="3" height="3"/>
<rect x="695.6" y="74.6" width="3" height="3"/>
<rect x="700.6" y="74.6" width="3" height="3"/>
<rect x="700.6" y="69.6" width="3" height="3"/>
<rect x="700.6" y="64.6" width="3" height="3"/>
<rect x="700.6" y="59.6" width="3" height="3"/>
<rect x="700.6" y="53.6" width="3" height="3"/>
<rect x="700.6" y="48.6" width="3" height="3"/>
<rect x="700.6" y="43.6" width="3" height="3"/>
<rect x="705.6" y="43.6" width="3" height="3"/>
<rect x="705.6" y="48.6" width="3" height="3"/>
<rect x="705.6" y="53.6" width="3" height="3"/>
<rect x="705.6" y="59.6" width="3" height="3"/>
<rect x="705.6" y="64.6" width="3" height="3.1"/>
<rect x="705.6" y="69.6" width="3" height="3"/>
<rect x="705.6" y="74.6" width="3" height="3.1"/>
<rect x="685.6" y="43.6" width="3" height="3"/>
<rect x="685.6" y="48.5" width="3" height="3"/>
<rect x="685.5" y="53.6" width="3" height="3"/>
<rect x="676.4" y="79.5" width="36" height="5"/>
<rect x="683.7" y="83.9" width="1.9" height="4.8"/>
<rect x="688.7" y="84.1" width="1.9" height="4.9"/>
<rect x="693.6" y="83.8" width="2" height="5"/>
<rect x="698.5" y="83.8" width="2.1" height="5.3"/>
<rect x="703.6" y="82.9" width="2" height="6.3"/>
<rect x="676.2" y="87.7" width="36.9" height="3.8"/>
<rect x="680.6" y="93.6" width="3" height="3"/>
<rect x="680.6" y="98.5" width="3" height="3"/>
<rect x="680.6" y="103.5" width="3" height="3.1"/>
<rect x="680.6" y="109.6" width="3" height="3"/>
<rect x="680.6" y="114.6" width="3" height="3"/>
<rect x="685.5" y="93.6" width="3.1" height="2.9"/>
<rect x="685.6" y="98.5" width="3" height="3"/>
<rect x="685.6" y="103.6" width="3" height="2.9"/>
<rect x="685.6" y="109.6" width="3" height="3"/>
<rect x="685.6" y="114.6" width="2.9" height="3.1"/>
<rect x="690.6" y="93.6" width="3" height="3"/>
<rect x="690.6" y="98.5" width="3" height="3"/>
<rect x="690.6" y="103.6" width="3" height="3"/>
<rect x="690.6" y="109.5" width="3" height="3"/>
<rect x="690.6" y="114.6" width="2.9" height="3"/>
<rect x="695.6" y="114.6" width="3" height="3"/>
<rect x="700.6" y="114.5" width="2.9" height="3"/>
<rect x="700.6" y="119.5" width="2.9" height="3"/>
<rect x="700.6" y="124.5" width="2.9" height="3"/>
<rect x="695.6" y="119.5" width="2.9" height="3"/>
<rect x="695.6" y="124.5" width="2.9" height="3"/>
<rect x="690.6" y="124.5" width="2.9" height="3"/>
<rect x="690.6" y="119.5" width="2.9" height="3"/>
<rect x="685.6" y="119.5" width="2.9" height="3"/>
<rect x="685.6" y="124.5" width="2.9" height="3"/>
<rect x="680.6" y="124.5" width="2.9" height="3"/>
<rect x="680.6" y="119.5" width="2.9" height="3"/>
<rect x="705.6" y="114.6" width="3" height="3.1"/>
<rect x="705.6" y="119.5" width="3" height="3.1"/>
<rect x="705.6" y="124.5" width="2.9" height="3.1"/>
<rect x="695.7" y="109.6" width="2.9" height="2.9"/>
<rect x="700.6" y="109.6" width="3" height="2.9"/>
<rect x="705.6" y="109.6" width="3" height="2.9"/>
<rect x="705.6" y="103.6" width="2.9" height="3"/>
<rect x="705.6" y="98.5" width="3" height="3"/>
<rect x="705.6" y="93.6" width="3" height="3"/>
<rect x="700.5" y="93.6" width="3.1" height="3"/>
<rect x="700.6" y="98.5" width="3" height="3.1"/>
<rect x="700.6" y="103.6" width="3" height="3"/>
<rect x="695.6" y="93.6" width="3" height="2.9"/>
<rect x="695.6" y="98.6" width="3" height="3"/>
<rect x="695.6" y="103.6" width="3" height="3"/>
<rect x="676.6" y="82.8" width="4" height="6.5"/>
<rect x="680.6" y="35.2" width="28" height="3"/>
<rect x="676" y="27.1" class="st0" width="37" height="7.1"/>
<rect x="668.1" y="110.6" width="3.5" height="2.9"/>
<rect x="668.2" y="115.6" width="3.2" height="3"/>
<rect x="673.6" y="110.7" width="1.5" height="2.8"/>
<rect x="673.6" y="115.6" width="1.3" height="3"/>
<rect x="661.6" y="79.2" width="1" height="50.7"/>
<rect x="657.7" y="79.3" width="0.9" height="50.8"/>
<rect x="653.6" y="79.2" width="1" height="50.5"/>
<rect x="649.6" y="79.2" width="1" height="50.5"/>
<rect x="634.6" y="79" width="1" height="50.7"/>
<rect x="630.6" y="79.1" width="1" height="50.6"/>
<rect x="626.6" y="79.3" width="1" height="51.2"/>
<rect x="622.6" y="78.9" width="1" height="50.9"/>
<rect x="583.6" y="92.5" width="2.9" height="2.9"/>
<rect x="583.6" y="97.6" width="2.9" height="2.9"/>
<rect x="583.6" y="102.6" width="2.9" height="2.9"/>
<rect x="583.6" y="107.6" width="3" height="3.1"/>
<rect x="583.6" y="112.6" width="2.9" height="3"/>
<rect x="588.6" y="92.5" width="2.9" height="3.1"/>
<rect x="588.5" y="97.5" width="3.2" height="2.9"/>
<rect x="588.6" y="102.6" width="3" height="3"/>
<rect x="588.6" y="107.6" width="3" height="3"/>
<rect x="588.6" y="112.6" width="3" height="3"/>
<rect x="593.6" y="112.6" width="3" height="3"/>
<rect x="598.6" y="112.5" width="3" height="3"/>
<rect x="598.6" y="117.5" width="3" height="3"/>
<rect x="598.6" y="122.5" width="3" height="3"/>
<rect x="593.6" y="122.5" width="3" height="3"/>
<rect x="593.6" y="117.5" width="3" height="3"/>
<rect x="588.6" y="117.5" width="3" height="3"/>
<rect x="588.6" y="122.5" width="3" height="3"/>
<rect x="583.6" y="122.5" width="3" height="3"/>
<rect x="583.6" y="117.5" width="3" height="3"/>
<rect x="598.6" y="107.5" width="3" height="3"/>
<rect x="598.6" y="102.6" width="3" height="2.9"/>
<rect x="598.6" y="97.6" width="3" height="3"/>
<rect x="598.6" y="92.5" width="3" height="3"/>
<rect x="593.6" y="107.6" width="3" height="2.9"/>
<rect x="593.6" y="102.6" width="3" height="3"/>
<rect x="593.6" y="97.6" width="3" height="3"/>
<rect x="593.6" y="92.6" width="3" height="3"/>
<rect x="179.6" y="83.5" width="18" height="3"/>
<rect x="179.7" y="88.6" width="17.8" height="2.9"/>
<rect x="179.6" y="93.7" width="17.9" height="2.9"/>
<rect x="179.6" y="98.5" width="18" height="2.8"/>
<rect x="179.6" y="103.5" width="17.9" height="3"/>
<rect x="179.5" y="108.5" width="18" height="3.1"/>
<rect x="179.6" y="113.6" width="18" height="2.9"/>
<rect x="179.6" y="118.5" width="17.9" height="2.9"/>
<rect x="179.6" y="123.6" width="17.9" height="2.8"/>
<rect x="212.6" y="92.6" width="3" height="3"/>
<rect x="212.6" y="97.5" width="2.9" height="3"/>
<rect x="212.6" y="102.6" width="2.9" height="3"/>
<rect x="212.6" y="107.5" width="3" height="3"/>
<rect x="212.6" y="112.6" width="3" height="3"/>
<rect x="212.6" y="117.6" width="3" height="3"/>
<rect x="212.6" y="122.6" width="3" height="3"/>
<rect x="212.6" y="127.6" width="3" height="2.3"/>
<rect x="217.6" y="127.6" width="3" height="2.7"/>
<rect x="222.6" y="127.6" width="3" height="2.1"/>
<rect x="227.6" y="127.6" width="3" height="2.5"/>
<rect x="217.6" y="92.6" width="3" height="3"/>
<rect x="217.6" y="97.5" width="3" height="3.1"/>
<rect x="217.6" y="102.6" width="3" height="3"/>
<rect x="217.6" y="107.5" width="3" height="3"/>
<rect x="217.6" y="112.5" width="3" height="3"/>
<rect x="217.6" y="117.6" width="3" height="3"/>
<rect x="222.6" y="92.5" width="3" height="3"/>
<rect x="222.6" y="97.6" width="3" height="3"/>
<rect x="222.6" y="102.6" width="3" height="3.1"/>
<rect x="222.6" y="107.5" width="3" height="3"/>
<rect x="222.6" y="112.6" width="3" height="3.1"/>
<rect x="222.6" y="117.6" width="3" height="3"/>
<rect x="222.6" y="122.5" width="3" height="3"/>
<rect x="227.6" y="122.6" width="3" height="3"/>
<rect x="227.6" y="117.5" width="3" height="3.1"/>
<rect x="227.6" y="112.6" width="3" height="3"/>
<rect x="227.6" y="107.6" width="3" height="3"/>
<rect x="227.6" y="102.6" width="2.9" height="3"/>
<rect x="227.6" y="97.5" width="3" height="3"/>
<rect x="227.6" y="92.5" width="3" height="3.1"/>
<rect x="217.6" y="122.6" width="3" height="3"/>
<rect x="250.6" y="118.5" width="3" height="3.1"/>
<rect x="255.6" y="118.6" width="3" height="3.1"/>
<rect x="260.6" y="118.5" width="3" height="3"/>
<rect x="260.6" y="123.6" width="3" height="3"/>
<rect x="255.6" y="123.5" width="3" height="3.1"/>
<rect x="250.6" y="123.5" width="3" height="3"/>
<rect x="273.6" y="123.5" width="3.1" height="3"/>
<rect x="278.6" y="123.6" width="3" height="2.9"/>
<rect x="274.6" y="109.6" width="3" height="5"/>
<rect x="269.6" y="109.6" width="2.9" height="5"/>
<rect x="274.6" y="116.6" width="3" height="2.6"/>
<rect x="270.3" y="116.6" width="2.3" height="2.8"/>
<rect x="244.6" y="83.6" width="3" height="2.9"/>
<rect x="244.6" y="88.5" width="3" height="3"/>
<rect x="244.6" y="93.5" width="3" height="3"/>
<rect x="244.6" y="98.5" width="3" height="3.1"/>
<rect x="244.6" y="103.5" width="3" height="3"/>
<rect x="244.6" y="108.5" width="3" height="3.1"/>
<rect x="249.6" y="108.6" width="3" height="3"/>
<rect x="254.6" y="108.6" width="3" height="3"/>
<rect x="259.6" y="108.5" width="3" height="3"/>
<rect x="259.6" y="103.6" width="3" height="3"/>
<rect x="254.6" y="103.6" width="3" height="3"/>
<rect x="249.6" y="103.5" width="3" height="3"/>
<rect x="259.6" y="98.5" width="3" height="3"/>
<rect x="254.6" y="98.6" width="3" height="3"/>
<rect x="249.6" y="98.6" width="3" height="3"/>
<rect x="249.6" y="93.6" width="3" height="3"/>
<rect x="249.6" y="88.5" width="3" height="3"/>
<rect x="249.6" y="83.6" width="3" height="3"/>
<rect x="254.6" y="93.5" width="2.9" height="3"/>
<rect x="259.6" y="93.5" width="3" height="3"/>
<rect x="259.6" y="88.5" width="3" height="3"/>
<rect x="259.6" y="83.6" width="3" height="3"/>
<rect x="254.6" y="88.5" width="3" height="3"/>
<rect x="254.6" y="83.5" width="3" height="3"/>
<rect x="276.6" y="73.5" width="3" height="3.1"/>
<rect x="276.6" y="78.6" width="2.9" height="3"/>
<rect x="276.6" y="83.6" width="2.9" height="3"/>
<rect x="276.6" y="88.6" width="3" height="3"/>
<rect x="276.6" y="93.6" width="3" height="3"/>
<rect x="276.6" y="98.6" width="3" height="2.9"/>
<rect x="281.7" y="73.6" width="2.9" height="3"/>
<rect x="281.6" y="78.6" width="3" height="3"/>
<rect x="281.6" y="83.6" width="3" height="3"/>
<rect x="281.6" y="88.6" width="3" height="3"/>
<rect x="281.6" y="93.6" width="3" height="3"/>
<rect x="281.6" y="98.6" width="3" height="3"/>
<rect x="286.6" y="98.6" width="3" height="2.9"/>
<rect x="291.6" y="98.6" width="3" height="2.8"/>
<rect x="291.6" y="93.6" width="3" height="3"/>
<rect x="286.6" y="93.6" width="3" height="3"/>
<rect x="286.6" y="88.6" width="3.1" height="2.9"/>
<rect x="286.6" y="83.6" width="2.9" height="3"/>
<rect x="286.6" y="78.6" width="2.9" height="3"/>
<rect x="286.6" y="73.6" width="2.9" height="3"/>
<rect x="291.6" y="73.6" width="3" height="3"/>
<rect x="291.6" y="78.6" width="3" height="3"/>
<rect x="291.6" y="83.6" width="3" height="3"/>
<rect x="291.6" y="88.6" width="3" height="2.9"/>
<rect x="291.6" y="93.6" width="3" height="3"/>
<rect x="291.6" y="98.6" width="3" height="2.8"/>
<rect x="42.6" y="107.6" width="2.9" height="4.8"/>
<rect x="487.6" y="104.6" width="3" height="5"/>
<rect x="482.6" y="104.6" width="3" height="5"/>
<rect x="487.6" y="111.6" width="3" height="5"/>
<rect x="482.6" y="111.6" width="3" height="5.1"/>
<rect x="514.6" y="118.6" width="8" height="3"/>
<rect x="524.6" y="123.6" width="8" height="3.1"/>
<rect x="514.7" y="123.6" width="7.9" height="3"/>
<rect x="504.7" y="118.7" width="7.8" height="2.9"/>
<rect x="504.5" y="123.6" width="7.9" height="3"/>
<rect x="534.7" y="123.6" width="8" height="3"/>
<rect x="487.6" y="118.6" width="3" height="6"/>
<rect x="482.6" y="118.7" width="3" height="5.8"/>
<rect x="451.6" y="113.6" width="3" height="3"/>
<rect x="446.6" y="113.6" width="3" height="3"/>
<rect x="446.7" y="118.7" width="3" height="2.9"/>
<rect x="451.7" y="118.7" width="2.8" height="3"/>
<rect x="451.7" y="124.3" width="2.8" height="2.6"/>
<rect x="446.7" y="124.2" width="2.5" height="2.6"/>
<rect x="556.6" y="113.5" width="2.9" height="3"/>
<rect x="561.5" y="113.4" width="3" height="3.1"/>
<rect x="566.9" y="113.3" width="2.5" height="3.4"/>
<rect x="556.7" y="118.3" width="2.9" height="3.4"/>
<rect x="561.7" y="118.8" width="2.9" height="3.2"/>
<rect x="561.6" y="123.6" width="2.9" height="3.2"/>
<rect x="556.6" y="123.5" width="2.9" height="3.2"/>
<rect x="566.9" y="123.6" width="2.9" height="3.2"/>
<rect x="566.9" y="118.6" width="2.9" height="3.2"/>
<rect x="362.4" y="105.5" width="3.1" height="5"/>
<rect x="367.4" y="105.3" width="3.1" height="5.2"/>
<rect x="362.6" y="112.6" width="3" height="4.8"/>
<rect x="367.6" y="112.6" width="3" height="5"/>
<rect x="362.6" y="119.6" width="2.9" height="5"/>
<rect x="367.6" y="119.6" width="3.1" height="5"/>
<rect x="345.6" y="108.6" width="3" height="2.9"/>
<rect x="345.7" y="113.5" width="2.9" height="3"/>
<rect x="345.6" y="118.6" width="2.9" height="3"/>
<rect x="345.6" y="123.6" width="2.9" height="3"/>
<rect x="341.6" y="123.5" width="3" height="3.1"/>
<rect x="341.6" y="118.6" width="3" height="2.9"/>
<rect x="341.7" y="113.5" width="2.9" height="3"/>
<rect x="341.6" y="108.5" width="3" height="3"/>
<rect x="345.6" y="108.5" width="3" height="3.1"/>
<rect x="309.6" y="88.5" width="8" height="3"/>
<rect x="319.6" y="88.6" width="7.9" height="3"/>
<rect x="319.6" y="93.5" width="8" height="2.9"/>
<rect x="309.6" y="93.6" width="8.1" height="2.9"/>
<rect x="309.6" y="98.6" width="8" height="3"/>
<rect x="309.6" y="103.6" width="8" height="2.9"/>
<rect x="309.6" y="108.6" width="8" height="2.9"/>
<rect x="309.6" y="113.6" width="8" height="3"/>
<rect x="319.6" y="98.6" width="8" height="3"/>
<rect x="319.6" y="103.6" width="7.9" height="2.9"/>
<rect x="319.6" y="108.6" width="8.1" height="2.9"/>
<rect x="319.6" y="113.6" width="8" height="3"/>
<rect x="319.7" y="118.6" width="7.9" height="3"/>
<rect x="319.5" y="123.6" width="8" height="3"/>
<rect x="309.4" y="118.5" width="8" height="3.1"/>
<rect x="309.4" y="123.6" width="8" height="3.1"/>
<rect x="291.6" y="105.5" width="2.9" height="5"/>
<rect x="296.6" y="105.6" width="2.9" height="5.1"/>
<rect x="296.6" y="112.5" width="3" height="5"/>
<rect x="291.6" y="112.5" width="3" height="5"/>
<rect x="296.7" y="119.5" width="2.9" height="5.1"/>
<rect x="291.6" y="119.5" width="3" height="5.1"/>
<rect x="296.6" y="126.5" width="3" height="3.2"/>
<rect x="291.6" y="126.5" width="2.9" height="3.1"/>
<ellipse cx="345.1" cy="99.1" rx="2.5" ry="2.5"/>
<rect x="294.7" y="62.7" width="2.9" height="5.3"/>
<rect x="289.6" y="62.7" width="2.1" height="5.4"/>
<rect x="284.7" y="62.7" width="1.9" height="5.9"/>
<rect x="279.6" y="62" width="2" height="6.7"/>
<rect x="273.6" y="62.6" width="3" height="6.2"/>
<polygon points="285.6,52.1 297.7,62.7 273.5,62.7 "/>
<rect x="398.7" y="118.6" width="2.6" height="3"/>
<rect x="398.7" y="123.6" width="2.6" height="3"/>
<rect x="403.7" y="124.6" width="2.6" height="3"/>
<rect x="403.7" y="118.6" width="2.6" height="3"/>
<g class="st1">
	<polygon class="st2" points="921.3,111.9 925,115.9 954.8,115.9 958.2,111.9 	"/>
	<polygon class="st3" points="940.9,87.5 941,109.2 955.7,109 	"/>
	<polygon class="st3" points="937.3,109 925.9,109.1 937.5,91.4 	"/>
	<rect x="936.7" y="98.6" class="st2" width="1.5" height="13.9"/>
	<rect x="940.2" y="98.7" class="st2" width="1.5" height="13.9"/>
</g>
<rect x="-7.8" y="148.7" width="48.4" height="1.2"/>
<rect x="241.3" y="159.9" width="48.4" height="1.2"/>
<rect x="421.8" y="147.2" width="28" height="0.8"/>
<rect x="713" y="152.4" width="48.4" height="1.2"/>
<rect x="646.4" y="155.6" width="48.4" height="1.2"/>
<rect x="553.5" y="162.6" width="48.4" height="1.2"/>
<rect x="100.5" y="163.2" width="48.4" height="1.2"/>
<rect x="367.3" y="164.9" width="31.1" height="1.1"/>
</svg>
