<?xml version="1.0" encoding="utf-8"?>
<!-- Generator: Adobe Illustrator 23.0.0, SVG Export Plug-In . SVG Version: 6.00 Build 0)  -->
<svg version="1.1" id="Layer_1" xmlns="http://www.w3.org/2000/svg" xmlns:xlink="http://www.w3.org/1999/xlink" x="0px" y="0px"
	 viewBox="0 0 512 201.5" style="enable-background:new 0 0 512 201.5;" xml:space="preserve">
<style type="text/css">
	.st0{fill:none;stroke:#000000;stroke-width:10;stroke-miterlimit:10;}
	.st1{fill:none;stroke:#000000;stroke-width:10;stroke-linecap:round;stroke-linejoin:round;stroke-miterlimit:10;}
</style>
<path class="st0" d="M495.4,112.4c0.6,23.3-20.9,26.9-25.4,27.4c-0.5,0-0.9,0.1-1.4,0.1L299.8,139l64.6-24.6
	c0.7-0.3,0.5-1.3-0.3-1.3H242l-35.5,25.4l-80.8-0.4c-2.9,0-5.7-1-8-2.8c-9.7-7.6-41.3-26.8-63-39.7l5,0.2c0.3,0,0.7-0.1,1-0.3l23-16
	c1.2-0.8,0.6-2.6-0.9-2.6l-43.9-0.4c-0.4,0-0.7,0.1-1,0.3l-3.8,3c-0.5-1.3-0.7-2.7-0.7-4.1c-0.1-7.2,5.7-13.2,13-13.2l376.4,1.1
	c0.7,0,1.5,0.1,2.2,0.2c47.5,8.3,64.6,34.5,69.1,43.2C494.8,108.7,495.3,110.5,495.4,112.4z"/>
<path class="st0" d="M364.4,114.4L299.8,139l-136,51.8l-23.7-0.6c-1.9,0-2.7-2.4-1.2-3.5l67.5-48.2l35.5-25.4h122.1
	C364.9,113.1,365.1,114.1,364.4,114.4z"/>
<line class="st1" x1="110.4" y1="89.1" x2="476.9" y2="88"/>
<path class="st0" d="M83.7,79.4l-23,16c-0.3,0.2-0.6,0.3-1,0.3l-5-0.2L20,94.2c-1.4,0-2-1.7-0.9-2.5l15-11.9l3.8-3
	c0.3-0.2,0.6-0.3,1-0.3l43.9,0.4C84.3,76.8,84.9,78.6,83.7,79.4z"/>
<polyline class="st0" points="418.6,88.8 443.1,103.8 489,102.6 "/>
<path class="st0" d="M85.9,63l-26.3-50c-0.6-1.1-1.7-1.8-2.9-1.8l-21.6-0.6c-1.2,0-2.2,1-2.2,2.2l0.4,62.3"/>
</svg>
